<svg width="76" height="13" viewBox="0 0 76 13" fill="none" xmlns="http://www.w3.org/2000/svg">
<path d="M4.784 0.415999C5.50933 0.415999 6.13333 0.543999 6.656 0.799999C7.17867 1.056 7.57333 1.408 7.84 1.856C8.10667 2.304 8.24 2.81067 8.24 3.376C8.24 4.08 8.032 4.672 7.616 5.152C7.21067 5.632 6.61333 5.92 5.824 6.016V6.112C6.64533 6.32533 7.28533 6.656 7.744 7.104C8.21333 7.552 8.448 8.17067 8.448 8.96C8.448 9.888 8.13867 10.6453 7.52 11.232C6.90133 11.8187 6.01067 12.112 4.848 12.112C3.68533 12.112 2.74133 11.8133 2.016 11.216C1.30133 10.608 0.88 9.72267 0.752 8.56H2.192C2.288 9.264 2.55467 9.824 2.992 10.24C3.44 10.656 4.04267 10.864 4.8 10.864C5.51467 10.864 6.064 10.6827 6.448 10.32C6.832 9.94667 7.024 9.46667 7.024 8.88C7.024 8.176 6.74667 7.64267 6.192 7.28C5.648 6.90667 4.86933 6.72 3.856 6.72H3.472V5.504H3.856C5.81867 5.504 6.8 4.848 6.8 3.536C6.8 2.96 6.61867 2.50133 6.256 2.16C5.89333 1.81867 5.392 1.648 4.752 1.648C4.112 1.648 3.57333 1.83467 3.136 2.208C2.69867 2.57067 2.44267 3.10933 2.368 3.824H0.944C1.01867 2.75733 1.38667 1.92533 2.048 1.328C2.72 0.719999 3.632 0.415999 4.784 0.415999ZM10.0939 10.88C11.9072 9.664 13.3579 8.45867 14.4459 7.264C15.5339 6.05867 16.0779 4.93867 16.0779 3.904C16.0779 3.264 15.9125 2.752 15.5819 2.368C15.2619 1.97333 14.7392 1.776 14.0139 1.776C13.2672 1.776 12.7019 2.016 12.3179 2.496C11.9339 2.96533 11.7205 3.616 11.6779 4.448H10.2379C10.3125 3.18933 10.7019 2.224 11.4059 1.552C12.1099 0.869333 13.0165 0.528 14.1259 0.528C15.1819 0.528 16.0192 0.810666 16.6379 1.376C17.2565 1.94133 17.5659 2.74133 17.5659 3.776C17.5659 4.62933 17.2885 5.49867 16.7339 6.384C16.1899 7.25867 15.5019 8.07467 14.6699 8.832C13.8485 9.57867 13.0005 10.2133 12.1259 10.736H17.8539V11.936H10.0939V10.88ZM19.412 6.288C19.412 8.10133 19.7107 9.51467 20.308 10.528C20.9053 11.5413 21.94 12.048 23.412 12.048C24.884 12.048 25.9187 11.5413 26.516 10.528C27.124 9.51467 27.428 8.10133 27.428 6.288C27.428 4.496 27.124 3.09333 26.516 2.08C25.9187 1.06667 24.884 0.559999 23.412 0.559999C21.94 0.559999 20.9053 1.06667 20.308 2.08C19.7107 3.08267 19.412 4.48533 19.412 6.288ZM25.988 6.288C25.988 7.216 25.9187 7.99467 25.78 8.624C25.652 9.24267 25.4013 9.73867 25.028 10.112C24.6547 10.4853 24.116 10.672 23.412 10.672C22.7187 10.672 22.1853 10.4853 21.812 10.112C21.4387 9.73867 21.1827 9.24267 21.044 8.624C20.916 7.99467 20.852 7.216 20.852 6.288C20.852 5.37067 20.916 4.60267 21.044 3.984C21.1827 3.36533 21.4387 2.87467 21.812 2.512C22.1853 2.13867 22.7187 1.952 23.412 1.952C24.116 1.952 24.6547 2.13867 25.028 2.512C25.4013 2.87467 25.652 3.36533 25.78 3.984C25.9187 4.60267 25.988 5.37067 25.988 6.288ZM34.9053 4.992C35.1933 4.384 35.6146 3.91467 36.1693 3.584C36.7239 3.24267 37.3853 3.072 38.1533 3.072V4.656H37.7053C36.8839 4.656 36.2119 4.86933 35.6893 5.296C35.1666 5.712 34.9053 6.40533 34.9053 7.376V12H33.4493V3.216H34.9053V4.992ZM47.6699 7.12C47.6699 7.42933 47.6485 7.696 47.6059 7.92H40.5819C40.6139 8.92267 40.8965 9.67467 41.4299 10.176C41.9739 10.6773 42.6352 10.928 43.4139 10.928C44.1179 10.928 44.7045 10.752 45.1739 10.4C45.6539 10.0373 45.9472 9.55733 46.0539 8.96H47.6059C47.4992 9.568 47.2592 10.112 46.8859 10.592C46.5232 11.072 46.0485 11.4453 45.4619 11.712C44.8752 11.9787 44.2139 12.112 43.4779 12.112C42.6352 12.112 41.8885 11.9307 41.2379 11.568C40.5872 11.2053 40.0752 10.688 39.7019 10.016C39.3392 9.33333 39.1579 8.53333 39.1579 7.616C39.1579 6.69867 39.3392 5.89867 39.7019 5.216C40.0752 4.53333 40.5872 4.01067 41.2379 3.648C41.8885 3.28533 42.6352 3.104 43.4779 3.104C44.3312 3.104 45.0725 3.28533 45.7019 3.648C46.3419 4.01067 46.8272 4.496 47.1579 5.104C47.4992 5.712 47.6699 6.384 47.6699 7.12ZM46.1979 7.216C46.2299 6.56533 46.1232 6.02133 45.8779 5.584C45.6325 5.14667 45.2965 4.82133 44.8699 4.608C44.4432 4.39467 43.9792 4.288 43.4779 4.288C42.6779 4.288 42.0059 4.53867 41.4619 5.04C40.9179 5.53067 40.6245 6.256 40.5819 7.216H46.1979ZM52.3263 3.104C53.3183 3.104 54.1129 3.36533 54.7103 3.888C55.3183 4.4 55.6863 5.09333 55.8143 5.968H54.4223C54.3583 5.44533 54.1396 5.01867 53.7663 4.688C53.4036 4.34667 52.9129 4.176 52.2943 4.176C51.7716 4.176 51.3609 4.304 51.0623 4.56C50.7743 4.80533 50.6303 5.14133 50.6303 5.568C50.6303 5.888 50.7263 6.14933 50.9183 6.352C51.1209 6.544 51.3663 6.69333 51.6543 6.8C51.9529 6.896 52.3583 7.00267 52.8703 7.12C53.5209 7.26933 54.0436 7.424 54.4383 7.584C54.8436 7.73333 55.1849 7.97867 55.4623 8.32C55.7503 8.66133 55.8943 9.12 55.8943 9.696C55.8943 10.4107 55.6223 10.992 55.0783 11.44C54.5449 11.888 53.8303 12.112 52.9343 12.112C51.8889 12.112 51.0356 11.8613 50.3743 11.36C49.7129 10.8587 49.3236 10.16 49.2063 9.264H50.6143C50.6676 9.79733 50.8969 10.2293 51.3023 10.56C51.7183 10.8907 52.2623 11.056 52.9343 11.056C53.4356 11.056 53.8249 10.928 54.1023 10.672C54.3903 10.416 54.5343 10.08 54.5343 9.664C54.5343 9.32267 54.4329 9.05067 54.2303 8.848C54.0276 8.64533 53.7769 8.49067 53.4783 8.384C53.1796 8.27733 52.7689 8.16533 52.2463 8.048C51.5956 7.89867 51.0729 7.74933 50.6783 7.6C50.2943 7.45067 49.9636 7.216 49.6863 6.896C49.4196 6.56533 49.2863 6.12267 49.2863 5.568C49.2863 4.832 49.5583 4.24 50.1023 3.792C50.6463 3.33333 51.3876 3.104 52.3263 3.104ZM65.6479 3.216V12H64.1919V9.936C63.9679 10.6507 63.5679 11.2 62.9919 11.584C62.4265 11.9573 61.7652 12.144 61.0079 12.144C59.9945 12.144 59.1732 11.8187 58.5439 11.168C57.9145 10.5067 57.5999 9.56267 57.5999 8.336V3.216H59.0559V8.192C59.0559 9.06667 59.2799 9.744 59.7279 10.224C60.1759 10.6933 60.7839 10.928 61.5519 10.928C62.3519 10.928 62.9919 10.672 63.4719 10.16C63.9519 9.63733 64.1919 8.88 64.1919 7.888V3.216H65.6479ZM69.4365 0.16V12H67.9805V0.16H69.4365ZM75.9694 10.72V12H74.8814C73.9854 12 73.3134 11.7867 72.8654 11.36C72.428 10.9333 72.2094 10.2187 72.2094 9.216V4.48H70.8974V3.216H72.2094V1.024H73.6814V3.216H75.9534V4.48H73.6814V9.248C73.6814 9.81333 73.7827 10.2027 73.9854 10.416C74.1987 10.6187 74.5614 10.72 75.0734 10.72H75.9694Z" fill="#212121" fill-opacity="0.9"/>
</svg>
