<svg width="70" height="13" viewBox="0 0 70 13" fill="none" xmlns="http://www.w3.org/2000/svg">
<path d="M6.552 0.719999V1.904H1.624V5.808H5.8V6.944H1.624V12H0.168V0.719999H6.552ZM16.3574 7.12C16.3574 7.42933 16.336 7.696 16.2934 7.92H9.26938C9.30138 8.92267 9.58404 9.67467 10.1174 10.176C10.6614 10.6773 11.3227 10.928 12.1014 10.928C12.8054 10.928 13.392 10.752 13.8614 10.4C14.3414 10.0373 14.6347 9.55733 14.7414 8.96H16.2934C16.1867 9.568 15.9467 10.112 15.5734 10.592C15.2107 11.072 14.736 11.4453 14.1494 11.712C13.5627 11.9787 12.9014 12.112 12.1654 12.112C11.3227 12.112 10.576 11.9307 9.92538 11.568C9.27471 11.2053 8.76271 10.688 8.38938 10.016C8.02671 9.33333 7.84538 8.53333 7.84538 7.616C7.84538 6.69867 8.02671 5.89867 8.38938 5.216C8.76271 4.53333 9.27471 4.01067 9.92538 3.648C10.576 3.28533 11.3227 3.104 12.1654 3.104C13.0187 3.104 13.76 3.28533 14.3894 3.648C15.0294 4.01067 15.5147 4.496 15.8454 5.104C16.1867 5.712 16.3574 6.384 16.3574 7.12ZM14.8854 7.216C14.9174 6.56533 14.8107 6.02133 14.5654 5.584C14.32 5.14667 13.984 4.82133 13.5574 4.608C13.1307 4.39467 12.6667 4.288 12.1654 4.288C11.3654 4.288 10.6934 4.53867 10.1494 5.04C9.60538 5.53067 9.31204 6.256 9.26938 7.216H14.8854ZM21.8618 3.104C22.7151 3.104 23.4351 3.31733 24.0218 3.744C24.6191 4.17067 25.0351 4.74133 25.2698 5.456V3.216H26.7258V12H25.2698V9.76C25.0351 10.4747 24.6191 11.0453 24.0218 11.472C23.4351 11.8987 22.7151 12.112 21.8618 12.112C21.0831 12.112 20.3898 11.9307 19.7818 11.568C19.1738 11.2053 18.6938 10.688 18.3418 10.016C18.0004 9.33333 17.8298 8.53333 17.8298 7.616C17.8298 6.69867 18.0004 5.89867 18.3418 5.216C18.6938 4.53333 19.1738 4.01067 19.7818 3.648C20.3898 3.28533 21.0831 3.104 21.8618 3.104ZM22.2778 4.4C21.3818 4.4 20.6618 4.688 20.1178 5.264C19.5844 5.82933 19.3178 6.61333 19.3178 7.616C19.3178 8.61867 19.5844 9.408 20.1178 9.984C20.6618 10.5493 21.3818 10.832 22.2778 10.832C22.8538 10.832 23.3658 10.6987 23.8138 10.432C24.2724 10.1653 24.6298 9.792 24.8858 9.312C25.1418 8.82133 25.2698 8.256 25.2698 7.616C25.2698 6.976 25.1418 6.41067 24.8858 5.92C24.6298 5.42933 24.2724 5.056 23.8138 4.8C23.3658 4.53333 22.8538 4.4 22.2778 4.4ZM33.235 10.72V12H32.147C31.251 12 30.579 11.7867 30.131 11.36C29.6937 10.9333 29.475 10.2187 29.475 9.216V4.48H28.163V3.216H29.475V1.024H30.947V3.216H33.219V4.48H30.947V9.248C30.947 9.81333 31.0483 10.2027 31.251 10.416C31.4643 10.6187 31.827 10.72 32.339 10.72H33.235ZM42.8198 3.216V12H41.3638V9.936C41.1398 10.6507 40.7398 11.2 40.1638 11.584C39.5984 11.9573 38.9371 12.144 38.1798 12.144C37.1664 12.144 36.3451 11.8187 35.7158 11.168C35.0864 10.5067 34.7718 9.56267 34.7718 8.336V3.216H36.2278V8.192C36.2278 9.06667 36.4518 9.744 36.8998 10.224C37.3478 10.6933 37.9558 10.928 38.7238 10.928C39.5238 10.928 40.1638 10.672 40.6438 10.16C41.1238 9.63733 41.3638 8.88 41.3638 7.888V3.216H42.8198ZM46.6084 4.992C46.8964 4.384 47.3177 3.91467 47.8724 3.584C48.427 3.24267 49.0884 3.072 49.8564 3.072V4.656H49.4084C48.587 4.656 47.915 4.86933 47.3924 5.296C46.8697 5.712 46.6084 6.40533 46.6084 7.376V12H45.1524V3.216H46.6084V4.992ZM59.373 7.12C59.373 7.42933 59.3517 7.696 59.309 7.92H52.285C52.317 8.92267 52.5997 9.67467 53.133 10.176C53.677 10.6773 54.3383 10.928 55.117 10.928C55.821 10.928 56.4077 10.752 56.877 10.4C57.357 10.0373 57.6503 9.55733 57.757 8.96H59.309C59.2023 9.568 58.9623 10.112 58.589 10.592C58.2263 11.072 57.7517 11.4453 57.165 11.712C56.5783 11.9787 55.917 12.112 55.181 12.112C54.3383 12.112 53.5917 11.9307 52.941 11.568C52.2903 11.2053 51.7783 10.688 51.405 10.016C51.0423 9.33333 50.861 8.53333 50.861 7.616C50.861 6.69867 51.0423 5.89867 51.405 5.216C51.7783 4.53333 52.2903 4.01067 52.941 3.648C53.5917 3.28533 54.3383 3.104 55.181 3.104C56.0343 3.104 56.7757 3.28533 57.405 3.648C58.045 4.01067 58.5303 4.496 58.861 5.104C59.2023 5.712 59.373 6.384 59.373 7.12ZM57.901 7.216C57.933 6.56533 57.8263 6.02133 57.581 5.584C57.3357 5.14667 56.9997 4.82133 56.573 4.608C56.1463 4.39467 55.6823 4.288 55.181 4.288C54.381 4.288 53.709 4.53867 53.165 5.04C52.621 5.53067 52.3277 6.256 52.285 7.216H57.901ZM64.8774 3.104C65.7307 3.104 66.4507 3.31733 67.0374 3.744C67.6347 4.17067 68.0507 4.74133 68.2854 5.456V0.16H69.7414V12H68.2854V9.76C68.0507 10.4747 67.6347 11.0453 67.0374 11.472C66.4507 11.8987 65.7307 12.112 64.8774 12.112C64.0987 12.112 63.4054 11.9307 62.7974 11.568C62.1894 11.2053 61.7094 10.688 61.3574 10.016C61.016 9.33333 60.8454 8.53333 60.8454 7.616C60.8454 6.69867 61.016 5.89867 61.3574 5.216C61.7094 4.53333 62.1894 4.01067 62.7974 3.648C63.4054 3.28533 64.0987 3.104 64.8774 3.104ZM65.2934 4.4C64.3974 4.4 63.6774 4.688 63.1334 5.264C62.6 5.82933 62.3334 6.61333 62.3334 7.616C62.3334 8.61867 62.6 9.408 63.1334 9.984C63.6774 10.5493 64.3974 10.832 65.2934 10.832C65.8694 10.832 66.3814 10.6987 66.8294 10.432C67.288 10.1653 67.6454 9.792 67.9014 9.312C68.1574 8.82133 68.2854 8.256 68.2854 7.616C68.2854 6.976 68.1574 6.41067 67.9014 5.92C67.6454 5.42933 67.288 5.056 66.8294 4.8C66.3814 4.53333 65.8694 4.4 65.2934 4.4Z" fill="#212121" fill-opacity="0.9"/>
</svg>
