<svg width="20" height="18" viewBox="0 0 20 18" fill="none" xmlns="http://www.w3.org/2000/svg">
<path d="M18.3932 2.30803C16.218 0.133458 12.6795 0.133458 10.5049 2.30803L9.99983 2.81282L9.49504 2.30803C7.32046 0.133163 3.78163 0.133163 1.60706 2.30803C-0.523361 4.43845 -0.537195 7.81539 1.57498 10.1633C3.50142 12.3041 9.18304 16.929 9.4241 17.1247C9.58775 17.2578 9.78467 17.3225 9.9804 17.3225C9.98688 17.3225 9.99335 17.3225 9.99953 17.3222C10.202 17.3316 10.406 17.2622 10.575 17.1247C10.816 16.929 16.4982 12.3041 18.4253 10.163C20.5371 7.8154 20.5233 4.43845 18.3932 2.30803ZM17.1125 8.98186C15.6105 10.6505 11.4818 14.0919 9.99953 15.3131C8.51725 14.0922 4.38944 10.6511 2.88773 8.98215C1.41427 7.34445 1.40044 5.01212 2.85564 3.55691C3.59885 2.814 4.57488 2.44225 5.5509 2.44225C6.52693 2.44225 7.50295 2.8137 8.24616 3.55691L9.3564 4.66715C9.48856 4.79931 9.65516 4.87819 9.82999 4.90586C10.1137 4.96679 10.4216 4.88761 10.6424 4.66745L11.7532 3.55691C13.2399 2.07079 15.6582 2.07109 17.144 3.55691C18.5992 5.01212 18.5854 7.34445 17.1125 8.98186Z" fill="#273142" fill-opacity="0.9"/>
</svg>
