<svg width="18" height="20" viewBox="0 0 18 20" fill="none" xmlns="http://www.w3.org/2000/svg">
<path d="M12.0152 9.27363C13.2949 8.34031 14.1283 6.82984 14.1283 5.1282C14.1283 2.30051 11.8278 0 9.0001 0C6.1724 0 3.87189 2.30051 3.87189 5.1282C3.87189 6.82984 4.70521 8.34031 5.98498 9.27363C2.80373 10.491 0.538574 13.5754 0.538574 17.1795C0.538574 18.7347 1.80385 20 3.35908 20H14.6411C16.1963 20 17.4616 18.7347 17.4616 17.1795C17.4616 13.5754 15.1965 10.491 12.0152 9.27363ZM5.41037 5.1282C5.41037 3.14883 7.02072 1.53848 9.0001 1.53848C10.9795 1.53848 12.5898 3.14883 12.5898 5.1282C12.5898 7.10758 10.9795 8.71797 9.0001 8.71797C7.02072 8.71797 5.41037 7.10758 5.41037 5.1282ZM14.6411 18.4615H3.35908C2.65217 18.4615 2.07705 17.8864 2.07705 17.1795C2.07705 13.362 5.18268 10.2564 9.00014 10.2564C12.8176 10.2564 15.9232 13.362 15.9232 17.1795C15.9232 17.8864 15.3481 18.4615 14.6411 18.4615Z" fill="#273142" fill-opacity="0.9"/>
</svg>
