<svg width="18" height="20" viewBox="0 0 18 20" fill="none" xmlns="http://www.w3.org/2000/svg">
<path d="M14.919 2.45508C13.3436 0.872921 11.2448 0.00157482 9.00913 0.00157482H8.99948C4.49761 -0.0905673 0.548071 3.87408 0.640759 8.37432C0.758603 11.552 3.81562 15.5877 6.19624 18.6881C6.89537 19.5233 7.91405 20 9.00843 20C10.1412 20 11.1929 19.4896 11.8939 18.5996C13.6599 16.405 17.4734 11.1265 17.3582 8.37424C17.3583 6.13701 16.492 4.03489 14.919 2.45508ZM10.6665 17.6329C9.85919 18.6978 8.16091 18.6997 7.35327 17.6347C4.12525 13.5243 2.20307 10.1012 2.20307 8.37428C2.20307 4.61907 5.25193 1.56401 8.99948 1.56401H9.00913C12.7514 1.56401 15.7959 4.61911 15.7959 8.37428C15.7959 10.12 13.9263 13.4946 10.6665 17.6329ZM9.04339 11.6803C7.21269 11.6803 5.7233 10.191 5.7233 8.36026C5.90567 3.95572 12.1818 3.95701 12.3635 8.3603C12.3635 10.191 10.8741 11.6803 9.04339 11.6803ZM9.04339 6.60257C8.0742 6.60257 7.2857 7.39107 7.2857 8.36026C7.38225 10.6921 10.7049 10.6914 10.8011 8.36026C10.8011 7.39107 10.0126 6.60257 9.04339 6.60257Z" fill="#3D4655"/>
</svg>
